<?xml version="1.0" encoding="UTF-8" standalone="no"?>
<!-- Created with Inkscape (http://www.inkscape.org/) -->
<svg xmlns:dc="http://purl.org/dc/elements/1.1/" xmlns:cc="http://creativecommons.org/ns#" xmlns:rdf="http://www.w3.org/1999/02/22-rdf-syntax-ns#" xmlns:svg="http://www.w3.org/2000/svg" xmlns="http://www.w3.org/2000/svg" xmlns:sodipodi="http://sodipodi.sourceforge.net/DTD/sodipodi-0.dtd" xmlns:inkscape="http://www.inkscape.org/namespaces/inkscape" width="668.27722" height="701.5965" id="svg2" version="1.1" inkscape:version="0.47 r22583" sodipodi:docname="3_5_floppy.svg">
  <defs id="defs4">
    <inkscape:perspective sodipodi:type="inkscape:persp3d" inkscape:vp_x="0 : 526.18109 : 1" inkscape:vp_y="0 : 1000 : 0" inkscape:vp_z="744.09448 : 526.18109 : 1" inkscape:persp3d-origin="372.04724 : 350.78739 : 1" id="perspective10"/>
    <inkscape:perspective id="perspective2820" inkscape:persp3d-origin="0.5 : 0.33333333 : 1" inkscape:vp_z="1 : 0.5 : 1" inkscape:vp_y="0 : 1000 : 0" inkscape:vp_x="0 : 0.5 : 1" sodipodi:type="inkscape:persp3d"/>
  </defs>
  <sodipodi:namedview id="base" pagecolor="#ffffff" bordercolor="#666666" borderopacity="1.0" inkscape:pageopacity="0" inkscape:pageshadow="2" inkscape:zoom="0.18386636" inkscape:cx="334.13862" inkscape:cy="350.79826" inkscape:document-units="px" inkscape:current-layer="layer1" showgrid="false" inkscape:window-width="1280" inkscape:window-height="744" inkscape:window-x="-4" inkscape:window-y="-4" inkscape:window-maximized="1"/>
  <metadata id="metadata7">
    <rdf:RDF>
      <cc:Work rdf:about="">
        <dc:format>image/svg+xml</dc:format>
        <dc:type rdf:resource="http://purl.org/dc/dcmitype/StillImage"/>
        <dc:title/>
      </cc:Work>
    </rdf:RDF>
  </metadata>
  <g inkscape:label="Layer 1" inkscape:groupmode="layer" id="layer1" transform="translate(-132.26943,-328.11031)">
    <g id="g3626">
      <g id="g3619">
        <path transform="translate(0,308.2677)" style="fill:#434d57;fill-opacity:1;fill-rule:evenodd;stroke:#000000;stroke-width:1px;stroke-linecap:butt;stroke-linejoin:miter;stroke-opacity:1" d="m 137.44242,24.150094 c 5.80716,-5.80716 20.5286,-3.244018 20.5286,-3.244018 l 619.51752,0 c 0,0 14.50156,-1.311524 19.15789,3.18591 4.05712,3.918671 3.35359,16.586114 3.35359,16.586114 l 0,664.20769 c 0,0 0.56917,10.122 -2.6273,13.33043 -3.21174,3.22375 -13.38414,2.68986 -13.38414,2.68986 l -621.66973,0 -28.98552,-29.71015 0,-640.942028 c 0,0 -2.80826,-19.18646 4.10909,-26.103808 z" id="rect2826" sodipodi:nodetypes="cccaccaccccs"/>
        <path style="fill:#949fa5;fill-opacity:1;fill-rule:evenodd;stroke:#000000;stroke-width:1px;stroke-linecap:butt;stroke-linejoin:miter;stroke-opacity:1" d="m 290.34375,481.9375 0,237 350.5625,0 0,-237 -350.5625,0 z M 346,499.46875 l 85.34375,0 0,183.65625 -85.34375,0 0,-183.65625 z" transform="translate(0,308.2677)" id="rect3607"/>
        <rect style="fill:#eeeeee;fill-rule:evenodd;stroke:#000000;stroke-width:1px;stroke-linecap:butt;stroke-linejoin:miter;stroke-opacity:1" id="rect3601" width="523.46179" height="392.23584" x="209.09631" y="34.609047" transform="translate(0,308.2677)" rx="20" ry="20"/>
        <rect style="fill:#333333;fill-rule:evenodd;stroke:#000000;stroke-width:1px;stroke-linecap:butt;stroke-linejoin:miter;stroke-opacity:1" id="rect3603" width="37.342163" height="28.197144" x="157.75159" y="70.411377" transform="translate(0,308.2677)"/>
        <rect y="378.67908" x="749.12952" height="28.197144" width="37.342163" id="rect3605" style="fill:#333333;fill-rule:evenodd;stroke:#000000;stroke-width:1px;stroke-linecap:butt;stroke-linejoin:miter;stroke-opacity:1"/>
      </g>
    </g>
  </g>
</svg>